<svg version="1.1" id="Layer_1" xmlns="http://www.w3.org/2000/svg" xmlns:xlink="http://www.w3.org/1999/xlink" x="0px" y="0px" width="58px" height="58px" viewBox="0 0 600 600" enable-background="new 0 0 600 600" xml:space="preserve"><path id="color_x5F_3_1_" d="M304.027,153.324c-4.486,0-8.122-3.636-8.122-8.123V72.699c0-4.484,3.636-8.121,8.122-8.121    c4.485,0,8.121,3.637,8.121,8.121v72.502C312.148,149.688,308.513,153.324,304.027,153.324z M106.73,354.649    c0-4.487-3.636-8.123-8.121-8.123H26.108c-4.485,0-8.122,3.636-8.122,8.123c0,4.485,3.637,8.121,8.122,8.121h72.501    C103.095,362.771,106.73,359.135,106.73,354.649z M582.014,354.649c0-4.487-3.637-8.123-8.122-8.123h-72.5    c-4.485,0-8.122,3.636-8.122,8.123c0,4.485,3.637,8.121,8.122,8.121h72.5C578.377,362.771,582.014,359.135,582.014,354.649z     M456.997,209.139l51.266-51.267c3.171-3.171,3.171-8.314,0-11.485c-3.174-3.172-8.315-3.172-11.487,0L445.51,197.65    c-3.172,3.174-2.697,7.903,0,11.488C448.667,213.334,455.41,210.724,456.997,209.139z M154.492,209.139    c3.386-2.943,3.172-8.314,0-11.488l-51.266-51.264c-3.172-3.172-8.313-3.172-11.486,0c-3.172,3.171-3.172,8.314,0,11.485    l51.266,51.267C144.592,210.724,149.666,213.334,154.492,209.139z M223.023,169.942c4.121-1.771,6.027-6.546,4.257-10.669    L200.104,95.99c-1.77-4.121-6.545-6.024-10.668-4.258c-4.121,1.771-6.027,6.547-4.258,10.67l27.178,63.28    C215,173.334,221.979,170.39,223.023,169.942z M393.322,165.649l28.31-66.743c1.752-4.131-0.176-8.898-4.306-10.649    c-4.128-1.749-8.896,0.174-10.648,4.305l-28.31,66.745c-1.753,4.131,0.134,9,4.305,10.649    C387,171.667,392.009,168.743,393.322,165.649z M497.912,279.768l67.214-27.179c4.158-1.68,6.166-6.415,4.485-10.574    c-1.682-4.156-6.418-6.166-10.575-4.484l-67.213,27.179c-4.158,1.681-6.311,6.477-4.484,10.574    C490.333,282.001,496.916,280.171,497.912,279.768z M119.762,276.377c2.336-3.831-0.176-8.896-4.305-10.649l-66.744-28.309    c-4.128-1.751-8.896,0.175-10.648,4.306c-1.752,4.128,0.176,8.896,4.306,10.646l66.743,28.311    C110.149,281.121,116.333,282.001,119.762,276.377z"></path><path id="color_x5F_2_9_" d="M470.667,297.667c-11.772-95.269-138.25-84.969-140.801-84.919c-4.423,0.087-7.962,3.697-7.962,8.12    v242.746c0,4.485,3.635,8.121,8.121,8.121h70.001c4.486,0,8.121-3.636,8.121-8.121c0-20.25,6.511-47.527,18.14-63.33    C456.667,359,476.205,342.483,470.667,297.667z M338.147,384.756c8.634,0.922,16.793,1.152,24.335,0.679    c-4.482,19.566-0.551,60.552,0.129,70.057h-24.464V384.756z M414.413,389.199c-20.747,29.135-21.886,58.474-22.292,66.292h-18.652    c-0.648-8.82-5.136-51.823,0.064-71.317c27.8-3.84,37.614-19.03,39.619-27.72c2.181-9.453,0.071-18.984-6.486-24.453    c-6.17-5.147-14.864-4.731-22.53-1.052c-10.324,4.955-17.075,19.283-20.429,43.533c-7.473,0.612-15.996,0.475-25.56-0.613V228.916    c68.79,0.158,104.909,22.197,113.654,69.317C458.344,333.474,437.514,356.76,414.413,389.199z M374.973,372.86    c2.287-14.557,6.443-28.513,13.85-32.148c4.844-2.378,16.844-0.044,13.886,12.883C400.815,361.864,391.185,369.384,374.973,372.86z     M402.504,494.097c0,4.486-3.637,8.123-8.122,8.123h-64.356c-4.486,0-8.121-3.637-8.121-8.123c0-4.485,3.635-8.121,8.121-8.121    h64.356C398.867,485.976,402.504,489.611,402.504,494.097z M402.504,522.323c0,4.487-3.637,8.123-8.122,8.123h-64.356    c-4.486,0-8.121-3.636-8.121-8.123c0-4.485,3.635-8.121,8.121-8.121h64.356C398.867,514.202,402.504,517.838,402.504,522.323z"></path><path id="color_x5F_1_21_" d="M298.487,214.016c-0.513-0.141-49.487-10.015-72.955,42.191c-5.062-1.179-59.199-11.873-81.051,38.777    c-19.205,44.517,16.383,74.029,16.185,74.684c-4.325,3.903-39.126,27.089-26.353,80.389c5.02,20.944,24.687,46.611,69.327,49.409    c11.026,32.868,51.026,42.868,95.989,26.521c3.024-1.1,4.843-4.212,4.843-7.431V221.852    C304.473,218.188,302.021,214.979,298.487,214.016z M252.061,289.246c1.742,1.773,6.272,4.421,11.447,0.953    c3.727-2.497,3.852-8.022,0.953-11.446c-7.288-8.612-16.719-14.111-23.453-17.241c12.993-26.721,31.476-32.619,45.223-32.619    c0.703,0,1.371,0.016,2,0.046v284.203c-10.257,4.009-56.23,13.192-69.563-23.141c-0.004-0.092-1.874-26.431,23.966-49.597    c3.339-2.995,3.619-8.131,0.625-11.471c-2.996-3.339-8.131-3.622-11.47-0.625c-6.302,5.65-11.259,11.558-15.186,17.408l-9.17-18.913    c-1.958-4.036-6.813-5.722-10.853-3.765c-4.035,1.956-5.721,6.814-3.764,10.851l14.486,29.88c-2.807,7.494-4.152,14.227-4.78,19.34    c-13.343-1.198-43.943-6.849-52.866-38.391c-11.99-42.385,23.649-66.263,25.344-67.385c0.793-0.525,19-12,42.526-5.467    c4.322,1.2,8.862-0.789,10.326-5.031c1.461-4.239-0.792-8.863-5.032-10.325c-5.394-1.859-10.619-2.843-15.598-3.204l17.23-21.062    c2.841-3.472,2.33-8.59-1.143-11.429c-3.47-2.842-8.589-2.331-11.429,1.141l-27.064,33.08c-0.224,0.273-8.02,3.407-11.027,4.818    c-8.531-8.679-25.629-30.668-14.251-58.775c8.336-20.595,27.459-30.466,45.49-31.038C227.333,269.334,242,279.001,252.061,289.246z"></path></svg>